<?xml version="1.0" encoding="utf-8"?>
<svg xmlns="http://www.w3.org/2000/svg" viewBox="0 0 160 30" fill="currentColor" role="img" aria-label="LUMAS">
  <path d="M8.1,0.9v20.5h12.1v6.8H0.4V0.9H8.1z"/>
  <path d="M34.9,28.9c-3.6,0-6.6-1-8.8-2.9c-2.3-1.9-3.5-4.7-3.5-8.2V0.9h7.7v17c0,1.4,0.4,2.5,1.2,3.3c0.8,0.8,1.9,1.2,3.4,1.2 s2.6-0.4,3.4-1.2c0.8-0.8,1.2-1.9,1.2-3.3v-17h7.7v16.9c0,3.6-1.1,6.4-3.3,8.3C41.6,28,38.6,28.9,34.9,28.9z"/>
  <path d="M68.1,11.3l2.6-10.4h11.8v27.4h-7.3v-7.8c0-5,0.1-9.3,0.2-12.8c-0.6,2.3-1.1,4.3-1.6,6.1l-4,14.5h-6.2l-4-14.5 C59.1,12,58.6,10,58,7.7c0.2,3.5,0.2,7.8,0.2,12.8v7.8h-7.3V0.9h11.8l2.6,10.4c0.7,2.7,1.1,4.6,1.4,5.9 C66.9,15.9,67.4,14,68.1,11.3z"/>
  <path d="M114.1,28.3h-8.2l-1.2-3.6H94l-1.2,3.6H85l9.7-27.4h9.2L114.1,28.3z M98,12.1l-2,6.3h6.7l-2-6.3c-0.7-2.2-1.2-3.7-1.3-4.3 C98.7,9.9,98.3,11.3,98,12.1z"/>
  <path d="M126.1,28.9c-3.9,0-6.9-0.9-9.1-2.6c-2.1-1.7-3.2-4.1-3.2-7h7.4c0,1.4,0.4,2.4,1.3,3c0.8,0.5,2.1,0.8,3.9,0.8 c2.6,0,3.8-0.8,3.8-2.5c0-0.8-0.3-1.3-0.9-1.7c-0.6-0.4-1.7-0.7-3.4-1l-2.2-0.3c-6.3-1-9.5-4-9.5-8.8c0-2.6,1-4.6,2.9-6.2 c1.9-1.5,4.7-2.3,8.3-2.3c3.6,0,6.5,0.8,8.5,2.3c2,1.5,3.1,3.8,3.2,6.8H130c-0.1-1.1-0.4-1.9-1.1-2.4c-0.7-0.5-1.8-0.8-3.2-0.8 c-2.3,0-3.5,0.8-3.5,2.3c0,0.8,0.3,1.3,0.9,1.7c0.6,0.4,1.6,0.7,3.1,1l2.3,0.4c3.4,0.6,5.9,1.5,7.4,2.9c1.6,1.3,2.3,3.2,2.3,5.7 c0,2.9-1.1,5.1-3.2,6.6C132.8,28.2,129.9,28.9,126.1,28.9z"/>
  <path d="M140.7,6.6V0.7H159v11.9h-6.4v-6H140.7z"/>
</svg>
